<svg width="304" height="64" viewBox="0 0 304 64" fill="none" xmlns="http://www.w3.org/2000/svg">
<path d="M38.7777 56.3661C38.5776 56.3451 38.3773 56.4043 38.2209 56.5309C38.0644 56.6575 37.9647 56.8411 37.9436 57.0412C37.9225 57.2414 37.9818 57.4417 38.1084 57.5981C38.235 57.7545 38.4186 57.8543 38.6187 57.8754C38.6187 57.8754 38.6187 57.8754 38.6187 57.8754C45.1897 58.5674 51.6289 59.1842 58.1879 59.7492C65.8957 60.4128 73.6361 61.078 81.449 61.5806C81.6369 61.5927 81.8246 61.6047 82.0122 61.6166C105.806 63.1213 129.828 63.7874 153.691 63.3915C182.178 62.8863 210.711 61.0628 238.939 56.6561C250.578 54.8059 262.304 52.494 273.633 49.2106C280.324 47.2415 287.068 44.9474 293.285 41.6615C295.332 40.5667 297.367 39.3176 299.136 37.8949C299.821 37.3431 300.429 36.786 300.959 36.2213C301.543 35.6022 302.087 34.905 302.496 34.2156C303.844 32.1598 303.964 29.1401 302.723 27.0222C301.586 24.8978 299.686 23.2671 297.935 22.0122C291.652 17.7138 284.501 15.3658 277.452 13.2351C262.644 8.96484 247.531 6.49616 232.312 4.55741C205.73 1.27101 179.008 0.00559998 152.233 -3.3092e-06C141.464 0.00808114 130.69 0.289645 119.929 0.809446C88.9257 2.48072 57.7872 5.20372 27.5189 12.9201C20.6449 14.8205 13.868 16.8802 7.48669 20.5199C4.50649 22.3627 0.990115 24.6169 0.0872819 28.806C-0.596367 33.202 2.87786 36.3747 5.54753 38.4498C6.86464 39.4437 8.02839 40.1936 9.53461 41.0719C14.5353 43.9232 20.0261 45.7409 25.4144 47.2856C29.3052 48.3834 33.2105 49.3 37.1363 50.1154C38.6552 50.4302 40.0641 50.7069 41.5256 50.9816C51.0705 52.7675 60.6913 54.0466 70.3356 55.066C94.3611 57.5627 118.519 58.5015 142.654 58.5288C169.099 58.5177 195.563 57.2986 221.853 54.515C225.878 54.0851 229.826 53.6237 233.849 53.1079C242.963 51.9374 252.09 50.134 261.097 48.1647C262.149 47.9344 263.184 47.6688 264.213 47.416C264.216 47.4153 264.218 47.4134 264.22 47.4108C264.221 47.4083 264.222 47.4052 264.221 47.4023C264.221 47.3994 264.219 47.3968 264.217 47.3951C264.214 47.3933 264.211 47.3926 264.208 47.393C264.208 47.393 264.208 47.393 264.208 47.393C263.162 47.56 262.104 47.7075 261.043 47.8837C251.95 49.3921 242.733 50.3678 233.645 51.4879C229.633 51.9818 225.693 52.4206 221.677 52.8277C195.446 55.4615 169.036 56.5198 142.654 56.5308C118.577 56.5038 94.4745 55.566 70.5448 53.0789C60.9402 52.0639 51.3652 50.79 41.8943 49.0179C40.4443 48.7454 39.0472 48.471 37.5421 48.159C33.6523 47.3511 29.7892 46.4439 25.9576 45.3628C20.6571 43.8472 15.2604 42.0416 10.5364 39.3431C9.09027 38.5001 7.98374 37.7852 6.75694 36.8593C4.18312 34.9206 1.4979 32.0644 2.05589 29.1477C2.60535 26.2177 5.65241 23.9357 8.49974 22.2421C14.5452 18.7865 21.2556 16.7184 28.039 14.8492C58.0066 7.20512 89.1237 4.46669 120.025 2.80516C130.757 2.28681 141.5 2.00609 152.235 1.99804C178.938 2.00332 205.593 3.26694 232.064 6.54002C247.215 8.46869 262.265 10.9334 276.89 15.1525C283.833 17.2401 290.917 19.6088 296.784 23.6298C300.18 25.9271 303.142 29.7565 300.812 33.213C300.488 33.7619 300.038 34.3485 299.534 34.888C299.076 35.38 298.538 35.8807 297.915 36.3868C296.291 37.7094 294.355 38.9179 292.383 39.977C286.382 43.1656 279.721 45.4557 273.106 47.4051C261.896 50.6625 250.232 52.9717 238.648 54.8156C210.546 59.2104 182.081 61.0327 153.66 61.546C129.851 61.9493 105.875 61.3519 82.1188 59.9031C81.9314 59.8916 81.744 59.8802 81.5564 59.8687C73.756 59.3917 66.0149 58.8999 58.3181 58.2373C51.7689 57.673 45.3391 57.0572 38.7777 56.3661Z" fill="#05030C"/>
</svg>
