<svg width="258" height="64" viewBox="0 0 258 64" fill="none" xmlns="http://www.w3.org/2000/svg">
<path d="M210.906 53.4289C211.056 53.395 211.214 53.4222 211.344 53.5046C211.475 53.5869 211.567 53.7176 211.601 53.8679C211.635 54.0183 211.607 54.1759 211.525 54.3062C211.443 54.4365 211.312 54.5287 211.162 54.5626C211.162 54.5626 211.162 54.5626 211.162 54.5626C208.784 55.0988 206.368 55.6092 203.919 56.0942C196.642 57.5355 189.2 58.7444 181.842 59.7226C177.532 60.2957 173.238 60.7925 168.93 61.2211C153.07 62.7934 137.119 63.5185 121.188 63.5377C107.844 63.5479 94.4384 63.054 81.1279 61.9745C74.2939 61.4182 67.4899 60.7166 60.6878 59.7963C57.0663 59.3064 53.3384 58.7376 49.7732 58.1231C45.595 57.4033 41.5029 56.6023 37.457 55.6832C34.5021 55.01 31.7568 54.3254 28.7872 53.4906C23.9666 52.1291 18.9746 50.4778 14.328 48.3583C8.87604 45.705 2.64245 42.671 0.421804 36.1727C-1.02708 31.595 1.46758 26.9459 4.69322 24.1419C21.5985 11.4803 42.8356 9.19755 62.5537 5.77663C79.3795 3.31584 96.2847 1.85031 113.206 0.957835C122.963 0.449713 132.735 0.150386 142.493 0.0471118C146.595 0.00383016 150.732 -0.0118992 154.802 0.00921126C158.632 0.0290932 162.446 0.0643971 166.206 0.147298C169.05 0.210163 171.865 0.296744 174.646 0.397558C179.549 0.575621 184.44 0.804362 189.369 1.1224C196.799 1.60515 204.039 2.22462 211.545 3.14096C224.957 5.09139 239.136 6.3454 251.192 13.8013C252.305 14.6377 253.167 15.3652 254.137 16.3711C255.839 18.1487 257.383 20.535 257.362 23.3086C257.351 26.0764 255.807 28.4366 254.098 30.2208C250.508 33.8476 246.223 36.0438 241.836 38.0944C233.036 42.0569 223.808 44.7332 214.531 47.0786C206.866 48.991 199.163 50.4775 191.399 51.7948C190.295 51.9817 189.167 52.1692 188.075 52.3466C183.299 53.1239 178.5 53.6789 173.721 54.3952C169.806 54.9818 165.881 55.5261 161.942 56.0309C161.941 56.0311 161.94 56.0307 161.939 56.03C161.938 56.0292 161.937 56.028 161.937 56.0267C161.937 56.0254 161.937 56.0241 161.938 56.0231C161.939 56.0221 161.94 56.0214 161.941 56.0212C161.941 56.0212 161.941 56.0212 161.941 56.0212C165.879 55.5164 169.805 54.9721 173.72 54.3855C178.5 53.669 183.225 52.6667 187.966 51.7372C189.049 51.5244 190.169 51.3003 191.264 51.076C198.967 49.4963 206.581 47.7166 214.185 45.7295C223.387 43.296 232.535 40.5262 241.128 36.5607C245.399 34.5275 249.563 32.2966 252.789 28.9774C254.335 27.3469 255.526 25.3631 255.511 23.3034C255.525 21.2412 254.323 19.2749 252.774 17.676C251.902 16.7778 251.103 16.1072 250.058 15.3279C238.935 8.46195 224.551 7.00368 211.302 5.12416C203.844 4.21369 196.64 3.57653 189.241 3.07913C184.332 2.75132 179.46 2.48517 174.573 2.28679C171.802 2.17436 168.995 2.08424 166.16 2.00708C162.411 1.90483 158.608 1.81918 154.789 1.7826C150.73 1.74346 146.603 1.74043 142.511 1.7814C132.777 1.87915 123.028 2.17681 113.295 2.67819C96.4168 3.55875 79.555 5.0051 62.7985 7.4443C43.2313 10.7709 21.8162 13.3255 5.80485 25.3565C2.79136 28.0252 0.76944 31.833 1.95084 35.7463C3.68834 41.2177 9.60244 44.4767 14.9359 47.0374C19.4688 49.1323 24.3973 50.7844 29.1688 52.1402C32.1089 52.9717 34.8322 53.6536 37.7663 54.3225C41.784 55.2356 45.8528 56.0326 50.0099 56.7488C53.5571 57.3602 57.2689 57.9227 60.8754 58.4105C67.6494 59.327 74.4269 60.054 81.2391 60.6158C94.507 61.7059 107.878 62.2068 121.188 62.2096C137.077 62.2059 152.989 61.494 168.804 59.9499C173.101 59.529 177.383 59.0508 181.682 58.4986C189.021 57.5564 196.445 56.3899 203.693 54.9543C206.133 54.4711 208.539 53.9628 210.906 53.4289Z" fill="#05030C"/>
</svg>
