<svg width="283" height="64" viewBox="0 0 283 64" fill="none" xmlns="http://www.w3.org/2000/svg">
<path d="M74.2423 1.38078C74.4194 1.37032 74.5851 1.28993 74.7029 1.1573C74.8207 1.02466 74.8811 0.850654 74.8706 0.673548C74.8601 0.496441 74.7797 0.330745 74.6471 0.212911C74.5145 0.0950769 74.3405 0.0347561 74.1634 0.0452202C74.1634 0.0452202 74.1634 0.0452202 74.1634 0.0452202C71.0413 0.229615 67.8867 0.477691 64.7671 0.782149C62.2884 1.02404 59.8017 1.19669 57.326 1.49403C52.8899 2.02726 48.4636 2.67843 44.0664 3.50748C44.05 3.51057 44.0337 3.51365 44.0173 3.51674C37.4024 4.77158 30.8241 6.34134 24.4133 8.48921C20.1214 9.93777 15.8481 11.6573 11.849 13.9117C8.53695 15.8018 5.29456 18.0772 2.87672 21.2371C1.29807 23.3035 0.165699 25.8542 0.0214808 28.5444C-0.112439 30.7681 0.389134 32.9516 1.26525 34.9641C1.59687 35.7279 1.98614 36.4703 2.42942 37.1911C4.27939 40.1897 6.8608 42.576 9.66753 44.5567C18.6439 50.6658 29.1047 53.5638 39.4339 55.9234C69.4519 62.2071 100.184 63.0529 130.652 63.3303C133.16 63.3425 135.693 63.3458 138.13 63.3425C164.507 63.3045 191.073 62.7548 217.428 59.9953C229.509 58.6827 241.578 56.957 253.395 53.8206C257.398 52.743 261.485 51.4477 265.357 49.828C267.893 48.7627 270.353 47.5658 272.743 46.0583C276.074 43.9354 279.318 41.1976 281.059 37.3461C281.699 35.9136 282.082 34.391 282.175 32.7977C282.36 30.0355 281.513 27.2465 280.034 24.9973C277.152 20.6536 272.741 17.9192 268.389 15.7008C252.148 8.05015 234.393 5.48501 216.93 3.24233C197.068 0.910795 177.109 0.047306 157.155 0.00103495C143.339 -0.0172235 129.553 0.217666 115.757 0.789253C110.804 0.99484 105.878 1.31421 100.936 1.70743C94.8265 2.1938 88.7283 2.79212 82.6369 3.42116C79.8395 3.70993 77.0488 4.05782 74.2566 4.33084C73.0963 4.44427 71.9487 4.55951 70.8136 4.67619C70.8079 4.67678 70.8027 4.67959 70.7991 4.68401C70.7955 4.68843 70.7938 4.6941 70.7944 4.69976C70.795 4.70543 70.7978 4.71064 70.8022 4.71423C70.8066 4.71783 70.8123 4.71952 70.818 4.71894C70.818 4.71894 70.818 4.71894 70.818 4.71894C71.953 4.60226 73.1005 4.48703 74.2607 4.3736C77.053 4.10058 79.8604 3.93669 82.6648 3.75005C88.7723 3.34335 94.8877 3.07882 101.003 2.85701C105.949 2.67745 110.873 2.52651 115.818 2.34863C129.59 1.8543 143.354 1.70677 157.148 1.80121C177.045 1.95715 196.938 2.90698 216.694 5.22644C234.041 7.44093 251.764 10.0611 267.494 17.4874C271.695 19.6131 275.853 22.2771 278.356 26.0816C279.644 28.0533 280.331 30.348 280.18 32.6807C280.1 34.0316 279.781 35.3069 279.234 36.5313C277.762 39.8156 274.834 42.3659 271.674 44.3699C269.415 45.796 267.046 46.952 264.585 47.985C260.828 49.5571 256.818 50.8302 252.876 51.8911C241.234 54.9825 229.234 56.7038 217.216 58.0085C190.985 60.7555 164.473 61.307 138.128 61.3445C135.694 61.3478 133.165 61.3445 130.661 61.3323C100.263 61.0595 69.5765 60.1965 39.8636 53.9721C29.6601 51.6522 19.3133 48.806 10.7519 43.0103C8.07919 41.1411 5.66593 38.929 3.99803 36.2259C3.59787 35.5761 3.24927 34.9114 2.95344 34.2307C2.16505 32.42 1.74491 30.5344 1.85716 28.6526C1.98009 26.3792 2.92505 24.2044 4.34058 22.3435C6.50224 19.5039 9.56074 17.3144 12.7473 15.4972C16.5945 13.322 20.7757 11.6323 24.991 10.2031C31.2898 8.08147 37.7959 6.51215 44.3471 5.24552C44.3633 5.2424 44.3795 5.23928 44.3957 5.23617C48.7507 4.39894 53.1308 3.67412 57.5286 3.07288C59.9821 2.73772 62.4309 2.35438 64.897 2.11372C67.9999 1.81089 71.1377 1.56414 74.2423 1.38078Z" fill="#05030C"/>
</svg>
