<svg width="252" height="68" viewBox="0 0 252 68" fill="none" xmlns="http://www.w3.org/2000/svg">
<path d="M165.866 4.90775C166.039 4.91572 166.209 4.8544 166.337 4.73729C166.466 4.62017 166.542 4.45684 166.55 4.28323C166.558 4.10963 166.497 3.93996 166.38 3.81156C166.263 3.68317 166.099 3.60655 165.926 3.59858C165.926 3.59858 165.926 3.59858 165.926 3.59858C159.529 3.30544 153.089 3.17217 146.628 3.15806C141.839 3.148 136.999 3.20389 132.178 3.31919C114.164 3.76197 96.1818 4.96186 78.2853 7.09525C62.6989 8.99606 47.1689 11.4757 31.9942 15.685C24.0461 17.967 16.0985 20.5915 8.97728 25.0349C6.90778 26.3604 4.92667 27.8875 3.31005 29.7049C1.02777 32.1822 -0.55088 35.8159 0.180761 39.3435C0.807922 42.7607 3.07786 45.5201 5.57245 47.6218C12.8338 53.4384 21.6791 56.1892 30.344 58.5772C53.3137 64.4126 76.9969 66.2086 100.558 66.9641C111.819 67.2764 123.06 67.2287 134.314 66.8533C145.289 66.4843 156.26 65.7899 167.191 64.7084C182.62 63.1559 198.037 60.9403 213.087 57.1201C224.857 53.8919 237.235 50.4742 246.468 41.7203C248.915 39.212 250.89 35.9314 251.116 32.2565C251.484 27.9261 249.291 23.778 246.311 20.9066C245.367 19.9673 244.244 18.9975 243.118 18.1873C240.665 16.4186 237.942 14.9539 235.187 13.6989C230.232 11.4602 225.301 9.86611 220.107 8.47286C208.636 5.44557 196.802 3.70164 185.058 2.45991C147.706 -1.26132 110.11 -0.38829 72.8054 2.6045C70.0344 2.83403 67.2732 3.10224 64.5116 3.39771C55.7248 4.33799 46.9718 5.5501 38.2133 6.64991C35.8165 6.95094 33.4264 7.2632 31.045 7.58665C31.0409 7.58721 31.0371 7.58937 31.0346 7.59267C31.0321 7.59597 31.031 7.60013 31.0316 7.60424C31.0321 7.60834 31.0343 7.61206 31.0376 7.61457C31.0409 7.61708 31.0451 7.61817 31.0492 7.61762C31.0492 7.61762 31.0492 7.61762 31.0492 7.61762C33.4305 7.29418 35.8204 6.98193 38.2172 6.68092C46.9771 5.58093 55.7879 4.90849 64.5896 4.26209C67.3564 4.05895 70.1195 3.85867 72.8883 3.64809C110.158 0.909693 147.708 0.239079 184.882 4.10878C196.566 5.39548 208.324 7.17747 219.655 10.1687C224.784 11.5436 229.648 13.0891 234.475 15.2662C237.157 16.4852 239.786 17.9048 242.113 19.5812C243.18 20.3482 244.273 21.2127 245.155 22.0798C247.942 24.7565 249.838 28.3493 249.547 32.154C249.369 35.3503 247.657 38.2955 245.361 40.6509C236.682 48.9265 224.358 52.4635 212.705 55.6312C197.775 59.423 182.415 61.6363 167.04 63.1846C156.146 64.2638 145.207 64.9576 134.263 65.3269C123.04 65.7026 111.829 65.7514 100.601 65.4413C77.1157 64.6936 53.4834 62.8913 30.7304 57.1117C22.1684 54.7668 13.3675 52.0745 6.47734 46.5479C4.11025 44.5616 2.09063 42.0375 1.55526 39.09C0.93233 36.0438 2.23906 32.9506 4.35381 30.6312C5.84625 28.9516 7.7344 27.4922 9.73135 26.2144C16.6146 21.9136 24.4952 19.2895 32.3728 17.0312C47.4287 12.8521 62.9121 10.3736 78.4507 8.47206C96.295 6.33645 114.238 5.09626 132.211 4.63698C137.02 4.51723 141.848 4.45857 146.625 4.4686C153.07 4.48268 159.491 4.61563 165.866 4.90775Z" fill="#05030C"/>
</svg>
