<svg width="194" height="17" viewBox="0 0 194 17" fill="none" xmlns="http://www.w3.org/2000/svg">
<path d="M82.2166 16.9151C86.7769 16.9151 90.4729 13.129 90.4729 8.45754C90.4729 3.78613 86.7749 0 82.2166 0C77.6582 0 73.9602 3.78613 73.9602 8.45754C73.9602 13.129 77.6563 16.9151 82.2166 16.9151Z" fill="#05030C"/>
<path d="M36.4631 8.45754C36.4631 13.129 40.1592 16.9151 44.7195 16.9151V0C40.1592 0 36.4631 3.78613 36.4631 8.45754Z" fill="#05030C"/>
<path d="M69.6603 8.45754C69.6603 13.129 67.8566 16.9151 63.2963 16.9151C58.736 16.9151 55.04 13.129 55.04 8.45754C55.04 3.78613 58.736 0 63.2963 0C67.8566 0 69.6603 3.78613 69.6603 8.45754Z" fill="#05030C"/>
<path fill-rule="evenodd" clip-rule="evenodd" d="M26.8313 0.33593C24.4489 1.36151 22.7089 4.60818 22.7089 8.45754C22.7089 12.3069 24.4489 15.5536 26.8313 16.5792C26.3895 16.7985 25.8918 16.9151 25.3343 16.9151C22.1707 16.9151 19.607 13.129 19.607 8.45754C19.607 3.78613 22.1707 0 25.3343 0C25.8918 0 26.3895 0.116588 26.8313 0.33593Z" fill="#05030C"/>
<path fill-rule="evenodd" clip-rule="evenodd" d="M6.87903 0.122516C4.09154 0.806233 1.9715 4.27817 1.9715 8.45754C1.9715 12.6369 4.09347 16.1089 6.87903 16.7926C6.5781 16.8736 6.25787 16.9151 5.9145 16.9151C2.6486 16.9151 0 13.129 0 8.45754C0 3.78613 2.64667 0 5.9145 0C6.25787 0 6.5781 0.0414973 6.87903 0.122516Z" fill="#05030C"/>
<path d="M100.473 5.18421V11.727H103.316C105.274 11.727 106.277 10.4168 106.277 8.45657C106.277 6.49632 105.276 5.18619 103.316 5.18619H100.473V5.18421ZM102.136 10.2232V6.68602H103.048C104.167 6.68602 104.578 7.46459 104.578 8.4546C104.578 9.4446 104.167 10.2232 103.048 10.2232H102.136ZM110.423 5.18421V11.727H112.086V9.4367H113.409L114.206 11.727H115.869L114.947 9.09682C115.554 8.73915 115.876 8.13447 115.876 7.30057C115.876 5.97266 115.018 5.18421 113.542 5.18421H110.421H110.423ZM112.086 8.01591V6.66824H113.32C113.938 6.66824 114.179 6.89746 114.179 7.33614C114.179 7.77483 113.938 8.01393 113.32 8.01393H112.086V8.01591ZM121.722 9.71137L122.669 8.70358H122.919L124.351 11.727H126.139L124.019 7.19189L125.827 5.18619H123.93L121.722 7.56932V5.18619H120.059V11.7289H121.722V9.71335V9.71137ZM135.044 7.07333C134.928 5.80865 133.853 5.06763 132.424 5.06763C130.805 5.06763 129.91 6.0023 129.91 7.12866C129.91 8.11866 130.447 8.79645 131.6 8.98813L132.798 9.18969C133.255 9.27268 133.531 9.40903 133.531 9.81215C133.531 10.1777 133.182 10.4267 132.609 10.4267C132.036 10.4267 131.517 10.2528 131.419 9.62047H129.719C129.854 11.0215 130.829 11.8475 132.538 11.8475C134.353 11.8475 135.204 10.8397 135.204 9.71335C135.204 8.51388 134.417 7.92699 133.379 7.75309L132.208 7.56142C131.824 7.49818 131.591 7.37764 131.591 7.05752C131.591 6.66428 131.967 6.49039 132.405 6.49039C132.906 6.49039 133.246 6.63662 133.344 7.07728H135.044V7.07333ZM139.392 5.18421V11.727H142.235C144.193 11.727 145.196 10.4168 145.196 8.45657C145.196 6.49632 144.195 5.18619 142.235 5.18619H139.392V5.18421ZM141.055 10.2232V6.68602H141.967C143.086 6.68602 143.497 7.46459 143.497 8.4546C143.497 9.4446 143.086 10.2232 141.967 10.2232H141.055ZM149.342 5.18421V11.727H151.005V9.4367H152.328L153.125 11.727H154.788L153.865 9.09682C154.473 8.73915 154.795 8.13447 154.795 7.30057C154.795 5.97266 153.937 5.18421 152.461 5.18421H149.34H149.342ZM151.005 8.01591V6.66824H152.239C152.857 6.66824 153.098 6.89746 153.098 7.33614C153.098 7.77483 152.857 8.01393 152.239 8.01393H151.005V8.01591ZM162.859 9.49993C162.778 10.0493 162.384 10.3437 161.813 10.3437C160.883 10.3437 160.399 9.55526 160.399 8.45657C160.399 7.35788 160.881 6.56943 161.813 6.56943C162.315 6.56943 162.681 6.78087 162.787 7.21165H164.514C164.3 5.96476 163.324 5.06763 161.813 5.06763C159.846 5.06763 158.7 6.4232 158.7 8.45657C158.7 10.4899 159.846 11.8475 161.813 11.8475C163.387 11.8475 164.398 10.8851 164.568 9.50191H162.859V9.49993ZM168.717 5.18421V11.727H170.38V9.4367H171.703L172.5 11.727H174.163L173.241 9.09682C173.849 8.73915 174.171 8.13447 174.171 7.30057C174.171 5.97266 173.312 5.18421 171.837 5.18421H168.715H168.717ZM170.38 8.01591V6.66824H171.615C172.232 6.66824 172.473 6.89746 172.473 7.33614C172.473 7.77483 172.232 8.01393 171.615 8.01393H170.38V8.01591ZM178.353 5.18421V11.727H181.196C183.154 11.727 184.158 10.4168 184.158 8.45657C184.158 6.49632 183.156 5.18619 181.196 5.18619H178.353V5.18421ZM180.016 10.2232V6.68602H180.928C182.047 6.68602 182.458 7.46459 182.458 8.4546C182.458 9.4446 182.047 10.2232 180.928 10.2232H180.016ZM193.311 7.07333C193.195 5.80865 192.121 5.06763 190.691 5.06763C189.073 5.06763 188.178 6.0023 188.178 7.12866C188.178 8.11866 188.714 8.79645 189.868 8.98813L191.065 9.18969C191.521 9.27268 191.799 9.40903 191.799 9.81215C191.799 10.1777 191.449 10.4267 190.876 10.4267C190.303 10.4267 189.785 10.2528 189.686 9.62047H187.987C188.122 11.0215 189.096 11.8475 190.803 11.8475C192.618 11.8475 193.469 10.8397 193.469 9.71335C193.469 8.51388 192.682 7.92699 191.644 7.75309L190.473 7.56142C190.089 7.49818 189.856 7.37764 189.856 7.05752C189.856 6.66428 190.232 6.49039 190.67 6.49039C191.172 6.49039 191.511 6.63662 191.609 7.07728H193.309L193.311 7.07333Z" fill="#05030C"/>
</svg>
