<svg width="469" height="109" viewBox="0 0 469 109" fill="none" xmlns="http://www.w3.org/2000/svg">
<path d="M414.632 35.6051C414.75 35.6543 414.882 35.6549 415 35.6066C415.118 35.5583 415.212 35.4651 415.261 35.3476C415.31 35.2301 415.311 35.0978 415.263 34.9799C415.214 34.862 415.121 34.768 415.004 34.7188C415.004 34.7188 415.004 34.7188 415.004 34.7188C411.232 33.137 407.141 31.58 403.127 30.1794C386.398 24.3615 369.098 20.172 351.658 16.9258C321.209 11.3242 290.251 8.37329 259.294 7.09821C253.045 6.8461 246.777 6.66806 240.517 6.56394C197.432 5.94994 154.055 8.19573 111.704 16.0147C90.5884 20.1406 69.6869 25.1711 50.5072 35.4435C43.8691 39.1571 37.6769 43.4179 32.919 49.5679C31.4952 51.4215 30.0743 53.7779 29.183 56.0106C28.374 58.001 27.8297 60.1207 27.6086 62.2696C27.1245 69.3502 33.0331 73.4925 38.0974 76.5823C44.6911 80.3637 51.4045 82.674 58.2046 84.7551C78.8707 90.8002 99.4443 93.8282 120.482 96.3243C171.846 102.043 223.74 103.141 275.387 101.185C310.806 99.6881 346.404 96.8165 381.234 90.0426C395.353 87.2034 409.19 83.8142 422.457 78.4125C429.709 75.3726 436.972 71.7816 442.813 66.1633C444.609 64.4147 446.327 62.2505 447.43 60.1406C448.271 58.5532 448.816 56.9811 449.064 55.4294C449.66 52.3285 448.562 48.5743 446.824 46.1467C442.717 40.4273 437.06 37.3927 430.899 34.4155C426.394 32.2987 420.689 30.2252 416.07 28.7792C405.246 25.3925 394.822 23.0912 384.126 21.0688C358.755 16.3658 333.164 13.7106 307.596 11.8639C279.65 9.88912 251.674 9.02097 223.687 9.02801C186.228 9.08685 149.084 10.5774 111.66 14.512C93.7683 16.4342 75.8359 18.8928 58.0607 22.6469C49.202 24.5382 40.2348 26.7659 31.2971 29.7882C28.6537 30.6856 25.7842 31.7419 22.987 32.9108C20.1719 34.0967 17.9151 35.1275 14.9903 36.7096C11.7298 38.5062 8.84708 40.3488 6.01303 42.9301C3.88031 44.8513 1.52323 47.797 0.551967 50.6726C-1.35412 55.582 2.04974 60.4397 5.07776 63.0736C6.24644 64.1444 7.75999 65.2994 9.15923 66.2385C10.3867 67.067 11.7284 67.8867 13.1812 68.696C19.8052 72.3512 26.7601 74.992 33.3344 77.2441C55.3048 84.5687 77.9351 89.1278 100.555 93.0407C148.503 101.082 196.99 105.524 245.534 107.584C275.475 108.796 305.461 109.021 335.433 107.668C352.403 106.89 369.936 105.55 386.789 103.31C394.668 102.255 401.819 101.117 409.643 99.5559C416.096 98.2555 422.131 96.8416 428.522 94.9759C434.892 93.1139 441.994 90.6122 448.158 87.5286C451.309 85.9463 453.9 84.4463 456.665 82.4798C459.779 80.2109 462.032 78.2314 464.412 75.1601C468.381 70.2048 469.91 63.0457 468.306 57.0024C468.065 55.9757 467.753 54.935 467.371 53.8804C465.515 48.7848 461.241 44.8776 456.983 41.9248C446.355 34.7797 433.657 30.786 421.693 27.499C389.311 19.0765 355.877 15.5593 322.508 13.1611C284.875 10.6192 247.047 10.1478 209.316 11.3752C185.892 12.159 162.502 13.6224 139.207 16.0394C122.661 17.7647 105.799 20.0171 89.4869 23.059C81.2693 24.5958 73.2912 26.3086 65.3919 28.3493C60.3946 29.6372 54.8352 31.2467 50.0524 32.8589C47.4844 33.7213 45.0328 34.6091 42.7041 35.5227C36.0772 38.1323 29.0931 41.4252 23.4885 45.7596C20.126 48.4139 17.4589 51.0927 15.5911 54.92C15.3175 55.4986 15.0796 56.0845 14.8787 56.6775C13.007 61.6681 15.4103 66.9617 18.5787 70.138C31.4959 81.9459 48.1955 85.6391 64.0465 89.9606C102.976 99.2936 143.399 103.162 183.246 105.53C221.594 107.649 260.076 107.879 298.405 105.892C316.19 104.95 333.812 103.524 351.5 101.319C361.56 100.063 372.002 98.4852 381.911 96.596C389.953 95.0574 397.327 93.4259 405.184 91.3019C409.573 90.1112 414.205 88.7182 418.669 87.1676C423.096 85.6349 427.933 83.7306 432.266 81.6583C438.768 78.5373 445.456 74.6027 450.532 69.1488C456.532 63.0141 459.107 53.8001 455.906 45.4535C454.394 41.0488 450.941 37.2666 447.582 34.543C417.572 14.2418 381.172 10.9835 346.678 6.05854C306.514 1.35365 266.02 -0.219878 225.596 0.0242899C214.55 0.103639 203.496 0.338613 192.455 0.733322C163.453 1.78333 134.421 4.19576 105.745 8.06677C97.0397 9.2466 88.4347 10.8696 79.9764 12.3115C75.7842 13.0262 71.6909 13.7743 67.7062 14.5558C67.6942 14.5582 67.6837 14.5651 67.6769 14.5752C67.6701 14.5853 67.6676 14.5977 67.67 14.6097C67.6723 14.6216 67.6793 14.6322 67.6894 14.6389C67.6995 14.6457 67.7119 14.6482 67.7238 14.6459C67.7238 14.6459 67.7238 14.6459 67.7238 14.6459C71.7077 13.8645 75.8004 13.1166 79.9919 12.402C88.4522 10.9598 97.1561 10.0411 105.863 8.98696C134.559 5.53292 163.579 3.77821 192.527 2.73009C203.548 2.33608 214.583 2.1015 225.611 2.02229C265.964 1.77814 306.394 3.3509 346.442 8.04261C380.754 12.8836 417.358 16.4355 446.318 36.0905C449.526 38.6856 452.695 42.2237 454.02 46.1124C456.936 53.8856 454.695 61.9428 449.064 67.7931C444.284 72.9392 437.782 76.8004 431.406 79.8549C427.157 81.887 422.389 83.7655 418.014 85.28C413.603 86.8125 409.014 88.1927 404.661 89.3736C396.867 91.4805 389.538 93.1027 381.537 94.6332C371.679 96.5128 361.278 98.085 351.252 99.3365C333.624 101.534 316.046 102.957 298.3 103.897C260.055 105.88 221.634 105.65 183.358 103.535C143.594 101.174 103.222 97.3005 64.5269 88.0211C48.8354 83.7975 32.0576 79.8324 20.0334 68.7683C17.1145 65.775 15.2285 61.5159 16.7712 57.3185C16.9465 56.8008 17.1553 56.2861 17.3974 55.7742C19.047 52.3841 21.5074 49.8624 24.7141 47.3377C30.0569 43.1997 36.9057 39.9496 43.4339 37.3827C45.7284 36.4825 48.149 35.6058 50.6885 34.753C55.4179 33.1587 60.9303 31.5625 65.8923 30.2836C73.7357 28.2574 81.6723 26.5531 89.8537 25.0231C106.095 21.9943 122.908 19.7476 139.414 18.0267C162.652 15.6156 185.999 14.1545 209.382 13.3722C247.048 12.1467 284.818 12.6178 322.371 15.1545C355.662 17.5444 389.039 21.0673 421.175 29.429C433.032 32.6763 445.629 36.6847 455.847 43.5683C459.945 46.3969 463.89 50.1081 465.492 54.5607C465.85 55.5467 466.138 56.5133 466.362 57.4606C467.814 63.0495 466.475 69.342 462.819 73.9539C460.615 76.7996 458.486 78.6824 455.502 80.8555C452.849 82.7422 450.338 84.1985 447.266 85.7407C441.256 88.7484 434.257 91.2186 427.96 93.0585C421.642 94.903 415.657 96.3058 409.25 97.5969C401.481 99.1472 394.368 100.279 386.525 101.329C369.75 103.559 352.269 104.896 335.341 105.672C305.444 107.021 275.509 106.798 245.616 105.588C197.15 103.532 148.72 99.1229 100.881 91.1229C78.3193 87.2328 55.7271 82.7361 33.9229 75.5071C27.4046 73.2889 20.5124 70.6832 14.0479 67.1354C12.6311 66.3509 11.327 65.5639 10.1422 64.7737C8.79155 63.8769 7.34631 62.7809 6.25384 61.781C3.35543 59.2355 0.64594 55.1755 2.19053 51.255C3.03378 48.7367 5.17299 46.0219 7.18977 44.2068C9.86214 41.7713 12.6501 39.9864 15.825 38.2399C18.6755 36.6992 20.8906 35.6878 23.6598 34.5224C26.4122 33.3732 29.2453 32.3307 31.8593 31.4433C40.6989 28.4539 49.6112 26.2376 58.4238 24.3548C76.1091 20.6162 93.9895 18.125 111.84 16.2075C149.183 12.2813 186.28 10.8014 223.688 10.7429C251.637 10.7358 279.576 11.5975 307.475 13.5666C332.998 15.4075 358.543 18.0584 383.813 22.7409C394.464 24.7534 404.838 27.0447 415.559 30.3978C420.134 31.8288 425.773 33.8689 430.191 35.9376C436.23 38.8261 441.731 41.8653 445.455 47.0705C447.03 49.2843 447.953 52.4747 447.447 55.1723C447.233 56.525 446.756 57.9254 445.989 59.3786C444.983 61.3128 443.384 63.3426 441.676 65.0051C436.124 70.3579 428.991 73.9233 421.839 76.9139C408.744 82.2473 394.973 85.6237 380.918 88.4486C346.23 95.1961 310.683 98.0725 275.322 99.5693C223.756 101.527 171.912 100.432 120.665 94.7332C99.6821 92.2481 79.1412 89.2962 58.6283 83.3406C51.8867 81.2957 45.2297 79.016 38.8121 75.3565C33.8213 72.3818 28.4937 68.3709 28.9649 62.4082C29.1662 60.3897 29.6699 58.3972 30.4282 56.5131C31.2624 54.4013 32.5972 52.1444 33.9634 50.3612C38.5254 44.4434 44.5875 40.2358 51.1322 36.5731C70.0569 26.4144 90.8936 21.3532 111.937 17.243C154.159 9.43938 197.48 7.19262 240.496 7.79815C246.747 7.90088 253.005 8.07662 259.245 8.32566C290.153 9.58526 321.065 12.503 351.448 18.0628C368.846 21.284 386.145 25.2907 402.81 31.0866C406.808 32.4815 410.88 34.0316 414.632 35.6051Z" fill="#05030C"/>
</svg>
